<svg xmlns="http://www.w3.org/2000/svg" xml:space="preserve" id="Layer_1" x="0" y="0" version="1.1" viewBox="0 0 367.5 70"><style id="style1082" type="text/css">.st0{fill:#d8dad9}.st6{fill:#7cb34a}.st7{fill:#f36f32}.st8{fill:#0b77bd}</style><path id="rect1124" d="M0 0h64v18H0z" class="st7"/><path id="rect1126" d="M75.87 0h64v18h-64z" class="st0"/><path id="rect1128" d="M151.75 0h64v18h-64z" class="st0"/><path id="rect1130" d="M227.62 0h64v18h-64z" class="st6"/><path id="rect1132" fill="#bdd9f1" d="M303.5 0h64v18h-64z"/><path id="rect1134" d="M0 26h64v18H0z" class="st8"/><path id="rect1136" d="M75.87 26h64v18h-64z" class="st7"/><path id="rect1138" fill="#a7d052" d="M151.75 26h64v18h-64z"/><path id="rect1140" d="M227.62 26h64v18h-64z" class="st0"/><path id="rect1142" d="M303.5 26h64v18h-64z" class="st0"/><path id="rect1144" fill="#f174ac" d="M0 52h64v18H0z"/><path id="rect1146" d="M75.87 52h64v18h-64z" class="st6"/><path id="rect1148" fill="#6fc9c4" d="M151.75 52h64v18h-64z"/><path id="rect1150" fill="#731012" d="M227.62 52h64v18h-64z"/><path id="rect1152" d="M303.5 52h64v18h-64z" class="st8"/></svg>