<svg xmlns="http://www.w3.org/2000/svg" xmlns:xlink="http://www.w3.org/1999/xlink" xml:space="preserve" id="Layer_1" x="0" y="0" version="1.1" viewBox="0 0 806.32 377.16"><style>.st0{fill:#d8dad9}.st1{fill:#bdd9f1}.st2{fill:#e3edbb}.st3{fill:#6fc9c4}.st4{fill:#ede8c5}.st5{fill:#f174ac}.st6{fill:#7cb34a}.st7{fill:#f36f32}.st8{fill:#0b77bd}.st9{fill:#a7d052}</style><path d="M.59.17h64v18h-64z" class="st0"/><path d="M76.46.17h64v18h-64z" class="st1"/><path d="M152.34.17h64v18h-64zm75.87 0h64v18h-64z" class="st0"/><path d="M304.09.17h64v18h-64z" class="st2"/><path d="M.59 26.17h64v18h-64z" class="st0"/><path d="M76.46 26.17h64v18h-64z" class="st3"/><path d="M152.34 26.17h64v18h-64z" class="st2"/><path d="M228.21 26.17h64v18h-64z" class="st4"/><path d="M304.09 26.17h64v18h-64z" class="st5"/><path d="M.59 52.17h64v18h-64z" class="st0"/><path d="M76.46 52.17h64v18h-64z" class="st6"/><path d="M152.34 52.17h64v18h-64z" class="st1"/><path d="M228.21 52.17h64v18h-64zm75.88 0h64v18h-64zm-303.5 26h64v18h-64zm75.87 0h64v18h-64zm75.88 0h64v18h-64zm75.87 0h64v18h-64z" class="st0"/><path d="M304.09 78.17h64v18h-64z" class="st5"/><path d="M.59 104.17h64v18h-64z" class="st7"/><path d="M76.46 104.17h64v18h-64zm75.88 0h64v18h-64z" class="st0"/><path d="M228.21 104.17h64v18h-64z" class="st6"/><path d="M304.09 104.17h64v18h-64z" class="st1"/><path d="M.59 130.17h64v18h-64z" class="st8"/><path d="M76.46 130.17h64v18h-64z" class="st7"/><path d="M152.34 130.17h64v18h-64z" class="st9"/><path d="M228.21 130.17h64v18h-64zm75.88 0h64v18h-64z" class="st0"/><path d="M.59 156.17h64v18h-64z" class="st5"/><path d="M76.46 156.17h64v18h-64z" class="st6"/><path d="M152.34 156.17h64v18h-64z" class="st3"/><path fill="#731012" d="M228.21 156.17h64v18h-64z"/><path d="M304.09 156.17h64v18h-64z" class="st8"/><path d="M.59 182.17h64v18h-64z" class="st0"/><path d="M76.46 182.17h64v18h-64z" class="st8"/><path d="M152.34 182.17h64v18h-64z" class="st4"/><path d="M228.21 182.17h64v18h-64z" class="st7"/><path d="M304.09 182.17h64v18h-64z" class="st9"/><path d="M.59 208.17h64v18h-64z" class="st4"/><path d="M76.46 208.17h64v18h-64z" class="st3"/><path d="M152.34 208.17h64v18h-64z" class="st5"/><path d="M228.21 208.17h64v18h-64z" class="st0"/><path d="M304.09 208.17h64v18h-64z" class="st3"/><path d="M.59 234.17h64v18h-64zm75.87 0h64v18h-64z" class="st0"/><path d="M152.34 234.17h64v18h-64z" class="st3"/><path d="M228.21 234.17h64v18h-64z" class="st6"/><path d="M304.09 234.17h64v18h-64zm-303.5 26h64v18h-64zm75.87 0h64v18h-64zm75.88 0h64v18h-64z" class="st0"/><path d="M228.21 260.17h64v18h-64z" class="st4"/><path d="M304.09 260.17h64v18h-64z" class="st0"/><path d="M.59 286.17h64v18h-64z" class="st4"/><path d="M76.46 286.17h64v18h-64z" class="st0"/><path d="M152.34 286.17h64v18h-64z" class="st2"/><path d="M228.21 286.17h64v18h-64z" class="st0"/><path d="M304.09 286.17h64v18h-64z" class="st1"/><path fill="#1c2022" d="M397.39 0v13.42h15.05v47.81h15.05V13.42h15.04V0zm84.96 0v23.56h-15.99V0h-15.05v61.23h15.05V36.98h15.99v24.25h15.05V0zm27.44 0v61.23h41.62V47.81h-26.57V37.07h22.7V23.65h-22.7V13.42h26.57V0z"/><defs><path id="SVGID_1_" d="M0 0h806.32v377.16H0z"/></defs><clipPath id="SVGID_00000061469963858196986220000015423365197591840152_"><use xlink:href="#SVGID_1_" overflow="visible"/></clipPath><path fill="#1c2022" d="M440.04 135.87c-5.25 5.42-11.09 6.88-17.8 6.88-7.14 0-12.56-2.41-17.03-6.88-6.45-6.45-6.19-15.05-6.19-24.25s-.26-17.8 6.19-24.25c4.47-4.47 9.63-6.88 17.03-6.88 15.74 0 22.44 10.23 23.91 20.3h-15.14c-1.2-4.64-3.61-6.88-8.77-6.88-2.75 0-4.82 1.2-5.93 2.67-1.38 1.8-2.24 3.87-2.24 15.05s.86 13.33 2.24 15.14c1.12 1.46 3.18 2.58 5.93 2.58 3.18 0 5.33-.95 6.71-2.41 1.72-1.72 2.32-4.21 2.32-6.54v-.86h-9.03v-12.55h23.99v8.51c0 9.87-1.55 15.64-6.19 20.37m16.6 6.36V81h15.05v47.81h25.71v13.42zm85.74-6.37c-4.47 4.47-9.63 6.88-17.11 6.88-7.48 0-12.64-2.41-17.11-6.88-6.45-6.45-6.19-15.05-6.19-24.25s-.26-17.8 6.19-24.25c4.47-4.47 9.63-6.88 17.11-6.88 7.48 0 12.64 2.41 17.11 6.88 6.45 6.45 6.19 15.05 6.19 24.25s.26 17.8-6.19 24.25m-11.09-39.3c-1.12-1.46-3.27-2.67-6.02-2.67s-4.9 1.2-6.02 2.67c-1.38 1.81-2.24 3.87-2.24 15.05s.86 13.16 2.24 14.96c1.12 1.46 3.27 2.75 6.02 2.75s4.9-1.29 6.02-2.75c1.38-1.81 2.24-3.78 2.24-14.96-.01-11.18-.87-13.24-2.24-15.05m54.35 45.67h-26.66V81h25.37c12.73 0 19.52 7.14 19.52 17.71 0 6.97-4.82 10.84-6.71 12.13 2.49 1.55 7.57 4.73 7.57 13.33 0 11.7-8.17 18.06-19.09 18.06M583.4 94.5h-9.37v9.98h9.37c4.13 0 5.42-2.58 5.42-4.99s-1.29-4.99-5.42-4.99m.78 23.48h-10.15v10.75h10.15c4.13 0 5.5-2.84 5.5-5.42s-1.38-5.33-5.5-5.33m65.18 24.25-2.84-9.11h-18.83l-3.01 9.11h-15.74L631.22 81h11.61l22.27 61.23h-15.74zm-11.95-38.01-5.5 16.34h10.66l-5.16-16.34zm33.88 38.01V81h15.05v47.81h25.72v13.42zm-239.25 81v-24.25h-15.99v24.25H401V162h15.05v23.56h15.99V162h15.05v61.23zm27.44 0V162h41.62v13.41h-26.57v10.24h22.7v13.41h-22.7v10.75h26.57v13.42zm86.51 0-2.84-9.12h-18.83l-3.01 9.12h-15.74L527.85 162h11.61l22.27 61.23h-15.74zm-11.95-38.01-5.5 16.34h10.66l-5.16-16.34zm33.88 38.01V162h15.05v47.81h25.72v13.42zm69.15-47.82v47.82h-15.05v-47.82h-15.05V162h45.15v13.41zm54.86 47.82v-24.25h-15.99v24.25h-15.05V162h15.05v23.56h15.99V162h15.05v61.23zm-256.27 81-19.61-30.79v30.79H401v-61.24h13.16l19.6 30.79v-30.79h15.05v61.24zm25.54 0v-61.24h41.62v13.42h-26.57v10.23h22.7v13.42h-22.7v10.75h26.57v13.42zm78.77-47.82v47.82h-15.05v-47.82h-15.05v-13.42h45.15v13.42zm78.78 47.82h-12.3l-9.89-30.19-9.89 30.19h-12.21l-16.86-61.24h15.74l8 32.34 9.89-32.34h10.66l9.89 32.34 8-32.34h15.74zm60.54-6.37c-4.47 4.47-9.63 6.88-17.11 6.88-7.48 0-12.64-2.41-17.11-6.88-6.45-6.45-6.19-15.05-6.19-24.25s-.26-17.8 6.19-24.25c4.47-4.47 9.63-6.88 17.11-6.88 7.48 0 12.64 2.41 17.11 6.88 6.45 6.45 6.19 15.05 6.19 24.25s.26 17.8-6.19 24.25m-11.09-39.3c-1.12-1.46-3.27-2.67-6.02-2.67-2.75 0-4.9 1.2-6.02 2.67-1.38 1.81-2.24 3.87-2.24 15.05s.86 13.16 2.24 14.96c1.12 1.46 3.27 2.75 6.02 2.75 2.75 0 4.9-1.29 6.02-2.75 1.38-1.8 2.24-3.78 2.24-14.96-.01-11.18-.87-13.24-2.24-15.05m58.65 45.67-10.84-22.79h-5.08v22.79h-15.05V243h24.25c13.59 0 20.9 9.63 20.9 19.69 0 8.34-5.16 13.59-9.98 16l13.24 25.54h-17.44zm-7.4-47.73h-8.52v12.38h8.52c4.13 0 6.53-3.01 6.53-6.19.01-3.18-2.4-6.19-6.53-6.19m66.65 47.73L772 279.11l-5.16 5.94v19.18h-14.88v-61.24h14.88v21.68l17.71-21.68h18.41l-20.9 24.77 21.59 36.47z" clip-path="url(#SVGID_00000061469963858196986220000015423365197591840152_)"/><path fill="#737778" d="M0 366.67v-33.04h20.51v3.16H3.53v11.64H18v3.16H3.53v11.92h16.98v3.16zm41.39 0v-14.06c0-4.04-2.18-6.08-5.62-6.08-3.43 0-5.66 2.09-5.66 6.08v14.06h-3.34v-22.83h3.34v2.51c1.62-1.86 3.85-2.78 6.4-2.78 2.46 0 4.45.74 5.85 2.13 1.62 1.58 2.37 3.71 2.37 6.36v14.62h-3.34zm23.94 0v-2.18c-1.86 1.86-3.53 2.46-6.59 2.46-3.16 0-5.01-.6-6.45-2.09-1.11-1.11-1.72-2.83-1.72-4.64 0-3.99 2.78-6.59 7.89-6.59h6.87v-2.18c0-3.34-1.67-5.01-5.85-5.01-2.92 0-4.41.7-5.75 2.6l-2.27-2.09c2.04-2.64 4.36-3.39 8.07-3.39 6.12 0 9.14 2.64 9.14 7.61v15.5h-3.34zm0-10.53h-6.4c-3.43 0-5.1 1.39-5.1 4.04s1.62 3.9 5.24 3.9c1.95 0 3.67-.14 5.1-1.53.79-.74 1.16-2.04 1.16-3.94v-2.47zm26.35 8.81c-1.21 1.21-3.25 1.99-5.57 1.99-2.51 0-4.59-.6-6.45-3.02v2.74h-3.34v-33.04h3.34v12.85c1.86-2.37 3.94-2.92 6.45-2.92 2.32 0 4.36.79 5.57 2 2.32 2.32 2.78 6.12 2.78 9.7s-.46 7.38-2.78 9.7m-6.26-18.42c-4.97 0-5.75 4.27-5.75 8.72 0 4.45.79 8.72 5.75 8.72s5.71-4.27 5.71-8.72c0-4.45-.74-8.72-5.71-8.72m21.44 20.14c-3.99 0-5.8-2.6-5.8-6.08v-26.96h3.34v26.82c0 2.23.74 3.34 3.06 3.34h1.81v2.88h-2.41zm7.42-33.08h3.76v3.76h-3.76v-3.76zm.18 10.25h3.34v22.83h-3.34v-22.83zm25.9 22.83v-14.06c0-4.04-2.18-6.08-5.62-6.08-3.43 0-5.66 2.09-5.66 6.08v14.06h-3.34v-22.83h3.34v2.51c1.62-1.86 3.85-2.78 6.4-2.78 2.46 0 4.45.74 5.85 2.13 1.62 1.58 2.37 3.71 2.37 6.36v14.62h-3.34zm18.32 10.49c-3.43 0-5.34-.88-7.75-3.06l2.18-2.13c1.67 1.49 2.83 2.27 5.48 2.27 4.41 0 6.26-3.11 6.26-7.01v-3.57c-1.86 2.37-3.94 2.97-6.4 2.97-2.32 0-4.32-.83-5.52-2.04-2.27-2.27-2.78-5.8-2.78-9.51s.51-7.24 2.78-9.51c1.21-1.21 3.25-2 5.57-2 2.51 0 4.55.56 6.4 2.97v-2.69h3.29v23.53c.01 5.65-3.52 9.78-9.51 9.78m.51-30.63c-4.97 0-5.71 4.27-5.71 8.54s.74 8.54 5.71 8.54c4.96 0 5.66-4.27 5.66-8.54.01-4.27-.69-8.54-5.66-8.54m40.74 1.67c-1.25-1.25-2.18-1.67-3.94-1.67-3.34 0-5.48 2.65-5.48 6.13v14.01h-3.34v-22.83h3.34v2.78c1.25-1.9 3.76-3.06 6.4-3.06 2.18 0 3.85.51 5.48 2.13l-2.46 2.51zm6.82 7.94c0 5.01 2.37 7.89 6.73 7.89 2.65 0 4.18-.79 5.99-2.6l2.27 2c-2.32 2.32-4.46 3.53-8.35 3.53-6.03 0-9.98-3.62-9.98-11.69 0-7.38 3.57-11.69 9.37-11.69 5.89 0 9.37 4.27 9.37 11.04v1.53h-15.4zm11.37-6.31c-.88-2.09-2.92-3.43-5.34-3.43-2.41 0-4.45 1.35-5.34 3.43-.51 1.25-.6 1.95-.7 3.8h12.07c-.09-1.86-.18-2.55-.69-3.8m17.86 17.12c-3.85 0-6.87-.88-9.37-3.29l2.23-2.23c1.81 1.9 4.27 2.64 7.1 2.64 3.76 0 6.08-1.35 6.08-4.04 0-1.99-1.16-3.11-3.81-3.34l-3.76-.33c-4.46-.37-6.82-2.37-6.82-6.12 0-4.18 3.53-6.68 8.4-6.68 3.25 0 6.17.79 8.21 2.46l-2.18 2.18c-1.62-1.25-3.71-1.81-6.08-1.81-3.34 0-5.1 1.44-5.1 3.76 0 1.95 1.11 3.11 3.99 3.34l3.67.32c3.99.37 6.73 1.9 6.73 6.17-.01 4.42-3.76 6.97-9.29 6.97m17.45-10.81c0 5.01 2.37 7.89 6.73 7.89 2.64 0 4.18-.79 5.99-2.6l2.27 2c-2.32 2.32-4.45 3.53-8.35 3.53-6.03 0-9.98-3.62-9.98-11.69 0-7.38 3.57-11.69 9.37-11.69 5.89 0 9.37 4.27 9.37 11.04v1.53h-15.4zm11.37-6.31c-.88-2.09-2.92-3.43-5.34-3.43-2.41 0-4.45 1.35-5.34 3.43-.51 1.25-.6 1.95-.7 3.8h12.06c-.08-1.86-.17-2.55-.68-3.8m23.62 16.84v-2.18c-1.86 1.86-3.53 2.46-6.59 2.46-3.16 0-5.01-.6-6.45-2.09-1.11-1.11-1.72-2.83-1.72-4.64 0-3.99 2.78-6.59 7.89-6.59h6.87v-2.18c0-3.34-1.67-5.01-5.85-5.01-2.92 0-4.41.7-5.75 2.6l-2.27-2.09c2.04-2.64 4.36-3.39 8.07-3.39 6.12 0 9.14 2.64 9.14 7.61v15.5h-3.34zm0-10.53h-6.4c-3.43 0-5.1 1.39-5.1 4.04s1.62 3.9 5.24 3.9c1.95 0 3.67-.14 5.11-1.53.79-.74 1.16-2.04 1.16-3.94v-2.47zm23.75-7.94c-1.25-1.25-2.18-1.67-3.94-1.67-3.34 0-5.48 2.65-5.48 6.13v14.01h-3.34v-22.83h3.34v2.78c1.25-1.9 3.76-3.06 6.4-3.06 2.18 0 3.85.51 5.48 2.13l-2.46 2.51zm13.6 18.75c-5.75 0-10.12-3.9-10.12-11.69 0-7.8 4.36-11.69 10.12-11.69 3.15 0 5.15.84 7.52 3.39l-2.27 2.13c-1.72-1.9-3.06-2.55-5.24-2.55-2.23 0-4.08.88-5.29 2.6-1.07 1.48-1.49 3.25-1.49 6.12 0 2.88.42 4.64 1.49 6.12 1.21 1.72 3.06 2.6 5.29 2.6 2.18 0 3.53-.7 5.24-2.6l2.27 2.18c-2.37 2.55-4.37 3.39-7.52 3.39m28.02-.28v-14.11c0-3.99-2.14-6.03-5.57-6.03s-5.71 2.09-5.71 6.03v14.11h-3.34v-33.04h3.34v12.71c1.67-1.9 3.85-2.78 6.4-2.78 5.15 0 8.21 3.29 8.21 8.44v14.66h-3.33zm37.44-1.72c-1.21 1.21-3.25 1.99-5.57 1.99-2.51 0-4.59-.6-6.45-3.02v2.74h-3.34v-33.04h3.34v12.85c1.86-2.37 3.94-2.92 6.45-2.92 2.32 0 4.36.79 5.57 2 2.32 2.32 2.78 6.12 2.78 9.7s-.46 7.38-2.78 9.7m-6.26-18.42c-4.97 0-5.75 4.27-5.75 8.72 0 4.45.79 8.72 5.75 8.72s5.71-4.27 5.71-8.72c0-4.45-.75-8.72-5.71-8.72m21.39 25.66c-.46 1.25-.98 2.09-1.62 2.69-1.21 1.16-2.83 1.58-4.45 1.58h-1.44v-2.97h1.02c2.32 0 3.02-.74 3.76-2.83l1.62-4.46-8.21-22.37h3.62l6.26 18.33 6.22-18.33h3.62l-10.4 28.36zm32.89-5.24c-3.85 0-6.87-.88-9.37-3.29l2.23-2.23c1.81 1.9 4.27 2.64 7.1 2.64 3.76 0 6.08-1.35 6.08-4.04 0-1.99-1.16-3.11-3.8-3.34l-3.76-.33c-4.45-.37-6.82-2.37-6.82-6.12 0-4.18 3.53-6.68 8.4-6.68 3.25 0 6.17.79 8.21 2.46l-2.18 2.18c-1.62-1.25-3.71-1.81-6.08-1.81-3.34 0-5.1 1.44-5.1 3.76 0 1.95 1.11 3.11 3.99 3.34l3.67.32c3.99.37 6.73 1.9 6.73 6.17-.02 4.42-3.77 6.97-9.3 6.97m29.98-.28v-14.11c0-3.99-2.14-6.03-5.57-6.03s-5.71 2.09-5.71 6.03v14.11h-3.34v-33.04h3.34v12.71c1.67-1.9 3.85-2.78 6.4-2.78 5.15 0 8.21 3.29 8.21 8.44v14.66h-3.33zm23.94 0v-2.18c-1.86 1.86-3.53 2.46-6.59 2.46-3.15 0-5.01-.6-6.45-2.09-1.11-1.11-1.72-2.83-1.72-4.64 0-3.99 2.78-6.59 7.89-6.59h6.87v-2.18c0-3.34-1.67-5.01-5.85-5.01-2.92 0-4.41.7-5.75 2.6l-2.27-2.09c2.04-2.64 4.36-3.39 8.07-3.39 6.12 0 9.14 2.64 9.14 7.61v15.5h-3.34zm0-10.53h-6.4c-3.43 0-5.11 1.39-5.11 4.04s1.62 3.9 5.24 3.9c1.95 0 3.66-.14 5.1-1.53.79-.74 1.16-2.04 1.16-3.94v-2.47zm23.76-7.94c-1.25-1.25-2.18-1.67-3.94-1.67-3.34 0-5.47 2.65-5.47 6.13v14.01h-3.34v-22.83h3.34v2.78c1.25-1.9 3.76-3.06 6.4-3.06 2.18 0 3.85.51 5.48 2.13l-2.47 2.51zm6.12-14.61h3.76v3.76h-3.76v-3.76zm.18 10.25h3.34v22.83h-3.34v-22.83zm25.9 22.83v-14.06c0-4.04-2.18-6.08-5.62-6.08-3.43 0-5.66 2.09-5.66 6.08v14.06h-3.34v-22.83h3.34v2.51c1.62-1.86 3.85-2.78 6.4-2.78 2.46 0 4.45.74 5.85 2.13 1.62 1.58 2.37 3.71 2.37 6.36v14.62h-3.34zm18.32 10.49c-3.43 0-5.34-.88-7.75-3.06l2.18-2.13c1.67 1.49 2.83 2.27 5.48 2.27 4.41 0 6.26-3.11 6.26-7.01v-3.57c-1.85 2.37-3.94 2.97-6.4 2.97-2.32 0-4.32-.83-5.52-2.04-2.27-2.27-2.78-5.8-2.78-9.51s.51-7.24 2.78-9.51c1.21-1.21 3.25-2 5.57-2 2.51 0 4.55.56 6.4 2.97v-2.69h3.29v23.53c.01 5.65-3.52 9.78-9.51 9.78m.51-30.63c-4.97 0-5.71 4.27-5.71 8.54s.74 8.54 5.71 8.54c4.96 0 5.66-4.27 5.66-8.54s-.69-8.54-5.66-8.54m43.02 20.14-7.24-11.69-4.46 5.1v6.59h-3.34v-33.04h3.34v22.09l10.3-11.88h4.18l-7.75 8.72 9.1 14.11zm23.98 0v-14.06c0-4.04-2.18-6.08-5.62-6.08-3.43 0-5.66 2.09-5.66 6.08v14.06h-3.34v-22.83h3.34v2.51c1.62-1.86 3.85-2.78 6.4-2.78 2.46 0 4.45.74 5.85 2.13 1.62 1.58 2.37 3.71 2.37 6.36v14.62h-3.34zm25.66-2.32c-1.58 1.58-3.76 2.6-6.54 2.6s-4.97-1.02-6.54-2.6c-2.32-2.37-2.78-5.57-2.78-9.1 0-3.53.46-6.73 2.78-9.1 1.58-1.58 3.76-2.6 6.54-2.6s4.96 1.02 6.54 2.6c2.32 2.37 2.78 5.57 2.78 9.1.01 3.53-.46 6.73-2.78 9.1m-2.36-16.15c-1.07-1.07-2.55-1.67-4.18-1.67s-3.06.6-4.13 1.67c-1.67 1.67-1.86 4.5-1.86 7.05s.18 5.38 1.86 7.05c1.07 1.07 2.51 1.67 4.13 1.67s3.11-.6 4.18-1.67c1.67-1.67 1.81-4.5 1.81-7.05s-.14-5.38-1.81-7.05m33.31 18.47h-3.11l-5.98-17.73-5.94 17.73h-3.11l-7.24-22.83h3.62l5.24 18.33 5.99-18.33h2.88l6.03 18.33 5.2-18.33h3.62zm17.12 0c-3.99 0-5.8-2.6-5.8-6.08v-26.96h3.34v26.82c0 2.23.74 3.34 3.06 3.34h1.81v2.88h-2.41zm8.54-10.53c0 5.01 2.37 7.89 6.73 7.89 2.65 0 4.18-.79 5.99-2.6l2.27 2c-2.32 2.32-4.45 3.53-8.35 3.53-6.03 0-9.98-3.62-9.98-11.69 0-7.38 3.57-11.69 9.37-11.69 5.89 0 9.37 4.27 9.37 11.04v1.53h-15.4zm11.37-6.31c-.88-2.09-2.92-3.43-5.34-3.43-2.41 0-4.45 1.35-5.34 3.43-.51 1.25-.6 1.95-.7 3.8h12.06c-.08-1.86-.17-2.55-.68-3.8m24.31 16.84v-2.74c-1.86 2.41-3.99 3.02-6.5 3.02-2.32 0-4.36-.79-5.57-1.99-2.32-2.32-2.78-6.12-2.78-9.7s.46-7.38 2.78-9.7c1.21-1.21 3.25-2 5.57-2 2.51 0 4.59.56 6.45 2.92v-12.85h3.34v33.04h-3.29zm-5.75-20.14c-4.97 0-5.75 4.27-5.75 8.72 0 4.45.79 8.72 5.75 8.72s5.71-4.27 5.71-8.72c0-4.45-.75-8.72-5.71-8.72m24.26 30.63c-3.43 0-5.34-.88-7.75-3.06l2.18-2.13c1.67 1.49 2.83 2.27 5.48 2.27 4.41 0 6.26-3.11 6.26-7.01v-3.57c-1.85 2.37-3.94 2.97-6.4 2.97-2.32 0-4.32-.83-5.52-2.04-2.27-2.27-2.78-5.8-2.78-9.51s.51-7.24 2.78-9.51c1.21-1.21 3.25-2 5.57-2 2.51 0 4.55.56 6.4 2.97v-2.69h3.29v23.53c.01 5.65-3.52 9.78-9.51 9.78m.52-30.63c-4.97 0-5.71 4.27-5.71 8.54s.74 8.54 5.71 8.54c4.96 0 5.66-4.27 5.66-8.54s-.7-8.54-5.66-8.54m18.97 9.61c0 5.01 2.37 7.89 6.73 7.89 2.65 0 4.18-.79 5.99-2.6l2.27 2c-2.32 2.32-4.45 3.53-8.35 3.53-6.03 0-9.98-3.62-9.98-11.69 0-7.38 3.57-11.69 9.37-11.69 5.89 0 9.37 4.27 9.37 11.04v1.53h-15.4zm11.37-6.31c-.88-2.09-2.92-3.43-5.34-3.43-2.41 0-4.45 1.35-5.34 3.43-.51 1.25-.6 1.95-.7 3.8h12.06c-.08-1.86-.17-2.55-.68-3.8" clip-path="url(#SVGID_00000061469963858196986220000015423365197591840152_)"/></svg>