<svg xmlns="http://www.w3.org/2000/svg" xml:space="preserve" id="Layer_1" x="0" y="0" version="1.1" viewBox="0 0 367.5 304">
  <style id="style1082" type="text/css">
    .st0{fill:#d8dad9}.st1{fill:#bdd9f1}.st2{fill:#e3edbb}.st3{fill:#6fc9c4}.st4{fill:#ede8c5}.st5{fill:#f174ac}.st6{fill:#7cb34a}.st7{fill:#f36f32}.st8{fill:#0b77bd}.st9{fill:#a7d052}
  </style>
  <g id="g1455" transform="translate(-.58999997 -.17)">
    <path id="rect1084" d="M.58999997.17h64v18h-64z" class="st0"/>
    <path id="rect1086" d="M76.459999.17h64v18h-64z" class="st1"/>
    <path id="rect1088" d="M152.34.17h64v18h-64z" class="st0"/>
    <path id="rect1090" d="M228.21001.17h64v18h-64z" class="st0"/>
    <path id="rect1092" d="M304.09.17h64v18h-64z" class="st2"/>
    <path id="rect1094" d="M.58999997 26.17h64v18h-64z" class="st0"/>
    <path id="rect1096" d="M76.459999 26.17h64v18h-64z" class="st3"/>
    <path id="rect1098" d="M152.34 26.17h64v18h-64z" class="st2"/>
    <path id="rect1100" d="M228.21001 26.17h64v18h-64z" class="st4"/>
    <path id="rect1102" d="M304.09 26.17h64v18h-64z" class="st5"/>
    <path id="rect1104" d="M.58999997 52.169998h64v18h-64z" class="st0"/>
    <path id="rect1106" d="M76.459999 52.169998h64v18h-64z" class="st6"/>
    <path id="rect1108" d="M152.34 52.169998h64v18h-64z" class="st1"/>
    <path id="rect1110" d="M228.21001 52.169998h64v18h-64z" class="st0"/>
    <path id="rect1112" d="M304.09 52.169998h64v18h-64z" class="st0"/>
    <path id="rect1114" d="M.58999997 78.169998h64v18h-64z" class="st0"/>
    <path id="rect1116" d="M76.459999 78.169998h64v18h-64z" class="st0"/>
    <path id="rect1118" d="M152.34 78.169998h64v18h-64z" class="st0"/>
    <path id="rect1120" d="M228.21001 78.169998h64v18h-64z" class="st0"/>
    <path id="rect1122" d="M304.09 78.169998h64v18h-64z" class="st5"/>
    <path id="rect1124" d="M.58999997 104.17h64v18h-64z" class="st7"/>
    <path id="rect1126" d="M76.459999 104.17h64v18h-64z" class="st0"/>
    <path id="rect1128" d="M152.34 104.17h64v18h-64z" class="st0"/>
    <path id="rect1130" d="M228.21001 104.17h64v18h-64z" class="st6"/>
    <path id="rect1132" d="M304.09 104.17h64v18h-64z" class="st1"/>
    <path id="rect1134" d="M.58999997 130.17h64v18h-64z" class="st8"/>
    <path id="rect1136" d="M76.459999 130.17h64v18h-64z" class="st7"/>
    <path id="rect1138" d="M152.34 130.17h64v18h-64z" class="st9"/>
    <path id="rect1140" d="M228.21001 130.17h64v18h-64z" class="st0"/>
    <path id="rect1142" d="M304.09 130.17h64v18h-64z" class="st0"/>
    <path id="rect1144" d="M.58999997 156.17h64v18h-64z" class="st5"/>
    <path id="rect1146" d="M76.459999 156.17h64v18h-64z" class="st6"/>
    <path id="rect1148" d="M152.34 156.17h64v18h-64z" class="st3"/>
    <path id="rect1150" fill="#731012" d="M228.21001 156.17h64v18h-64z"/>
    <path id="rect1152" d="M304.09 156.17h64v18h-64z" class="st8"/>
    <path id="rect1154" d="M.58999997 182.17h64v18h-64z" class="st0"/>
    <path id="rect1156" d="M76.459999 182.17h64v18h-64z" class="st8"/>
    <path id="rect1158" d="M152.34 182.17h64v18h-64z" class="st4"/>
    <path id="rect1160" d="M228.21001 182.17h64v18h-64z" class="st7"/>
    <path id="rect1162" d="M304.09 182.17h64v18h-64z" class="st9"/>
    <path id="rect1164" d="M.58999997 208.17h64v18h-64z" class="st4"/>
    <path id="rect1166" d="M76.459999 208.17h64v18h-64z" class="st3"/>
    <path id="rect1168" d="M152.34 208.17h64v18h-64z" class="st5"/>
    <path id="rect1170" d="M228.21001 208.17h64v18h-64z" class="st0"/>
    <path id="rect1172" d="M304.09 208.17h64v18h-64z" class="st3"/>
    <path id="rect1174" d="M.58999997 234.17h64v18h-64z" class="st0"/>
    <path id="rect1176" d="M76.459999 234.17h64v18h-64z" class="st0"/>
    <path id="rect1178" d="M152.34 234.17h64v18h-64z" class="st3"/>
    <path id="rect1180" d="M228.21001 234.17h64v18h-64z" class="st6"/>
    <path id="rect1182" d="M304.09 234.17h64v18h-64z" class="st0"/>
    <path id="rect1184" d="M.58999997 260.17001h64v18h-64z" class="st0"/>
    <path id="rect1186" d="M76.459999 260.17001h64v18h-64z" class="st0"/>
    <path id="rect1188" d="M152.34 260.17001h64v18h-64z" class="st0"/>
    <path id="rect1190" d="M228.21001 260.17001h64v18h-64z" class="st4"/>
    <path id="rect1192" d="M304.09 260.17001h64v18h-64z" class="st0"/>
    <path id="rect1194" d="M.58999997 286.17001h64v18h-64z" class="st4"/>
    <path id="rect1196" d="M76.459999 286.17001h64v18h-64z" class="st0"/>
    <path id="rect1198" d="M152.34 286.17001h64v18h-64z" class="st2"/>
    <path id="rect1200" d="M228.21001 286.17001h64v18h-64z" class="st0"/>
    <path id="rect1202" d="M304.09 286.17001h64v18h-64z" class="st1"/>
  </g>
</svg>
